<svg fill="none" stroke-linecap="square" stroke-miterlimit="10" width="1298" height="802" xmlns="http://www.w3.org/2000/svg"><path fill="#fff" d="M0 0h1298v802H0V0z"/><path stroke="#333" stroke-linecap="butt" d="M81.5 709.5h1176"/><path stroke="#ccc" stroke-linecap="butt" d="M81.5 567.5h1176m-1176-143h1176m-1176-143h1176m-1176-143h1176"/><clipPath id="a"><path d="M81.1 138.567h1176.8V709.9H81.1V138.567z"/></clipPath><path clip-path="url(#a)" d="M149 710h-44 44z"/><path fill="#4285f4" clip-path="url(#a)" d="M149 710h-44 44z"/><path clip-path="url(#a)" d="M217 710h-44 44z"/><path fill="#4285f4" clip-path="url(#a)" d="M217 710h-44 44z"/><path clip-path="url(#a)" d="M285 710h-44v-1h44z"/><path fill="#4285f4" clip-path="url(#a)" d="M285 710h-44v-1h44z"/><path clip-path="url(#a)" d="M352 710h-44v-1h44z"/><path fill="#4285f4" clip-path="url(#a)" d="M352 710h-44v-1h44z"/><path clip-path="url(#a)" d="M420 710h-44v-1h44z"/><path fill="#4285f4" clip-path="url(#a)" d="M420 710h-44v-1h44z"/><path clip-path="url(#a)" d="M488 710h-44v-2h44z"/><path fill="#4285f4" clip-path="url(#a)" d="M488 710h-44v-2h44z"/><path clip-path="url(#a)" d="M556 710h-44v-3h44z"/><path fill="#4285f4" clip-path="url(#a)" d="M556 710h-44v-3h44z"/><path clip-path="url(#a)" d="M624 710h-44v-6h44z"/><path fill="#4285f4" clip-path="url(#a)" d="M624 710h-44v-6h44z"/><path clip-path="url(#a)" d="M692 710h-44v-12h44z"/><path fill="#4285f4" clip-path="url(#a)" d="M692 710h-44v-12h44z"/><path clip-path="url(#a)" d="M759 710h-44v-43h44z"/><path fill="#4285f4" clip-path="url(#a)" d="M759 710h-44v-43h44z"/><path clip-path="url(#a)" d="M827 710h-44v-93h44z"/><path fill="#4285f4" clip-path="url(#a)" d="M827 710h-44v-93h44z"/><path clip-path="url(#a)" d="M895 710h-44v-85h44z"/><path fill="#4285f4" clip-path="url(#a)" d="M895 710h-44v-85h44z"/><path clip-path="url(#a)" d="M963 710h-44v-45h44z"/><path fill="#4285f4" clip-path="url(#a)" d="M963 710h-44v-45h44z"/><path clip-path="url(#a)" d="M1031 710h-44v-4h44z"/><path fill="#4285f4" clip-path="url(#a)" d="M1031 710h-44v-4h44z"/><path clip-path="url(#a)" d="M1098 710h-44 44z"/><path fill="#4285f4" clip-path="url(#a)" d="M1098 710h-44 44z"/><path clip-path="url(#a)" d="M1166 710h-44v-1h44z"/><path fill="#4285f4" clip-path="url(#a)" d="M1166 710h-44v-1h44z"/><path clip-path="url(#a)" d="M1234 710h-44 44z"/><path fill="#4285f4" clip-path="url(#a)" d="M1234 710h-44 44z"/><path clip-path="url(#a)" d="M149 710h-44v-1h44z"/><path fill="#ea4335" clip-path="url(#a)" d="M149 710h-44v-1h44z"/><path clip-path="url(#a)" d="M217 710h-44v-1h44z"/><path fill="#ea4335" clip-path="url(#a)" d="M217 710h-44v-1h44z"/><path clip-path="url(#a)" d="M285 709h-44 44z"/><path fill="#ea4335" clip-path="url(#a)" d="M285 709h-44 44z"/><path clip-path="url(#a)" d="M352 709h-44 44z"/><path fill="#ea4335" clip-path="url(#a)" d="M352 709h-44 44z"/><path clip-path="url(#a)" d="M420 709h-44v-1h44z"/><path fill="#ea4335" clip-path="url(#a)" d="M420 709h-44v-1h44z"/><path clip-path="url(#a)" d="M488 708h-44v-1h44z"/><path fill="#ea4335" clip-path="url(#a)" d="M488 708h-44v-1h44z"/><path clip-path="url(#a)" d="M556 707h-44v-3h44z"/><path fill="#ea4335" clip-path="url(#a)" d="M556 707h-44v-3h44z"/><path clip-path="url(#a)" d="M624 704h-44v-4h44z"/><path fill="#ea4335" clip-path="url(#a)" d="M624 704h-44v-4h44z"/><path clip-path="url(#a)" d="M692 698h-44v-12h44z"/><path fill="#ea4335" clip-path="url(#a)" d="M692 698h-44v-12h44z"/><path clip-path="url(#a)" d="M759 667h-44v-41h44z"/><path fill="#ea4335" clip-path="url(#a)" d="M759 667h-44v-41h44z"/><path clip-path="url(#a)" d="M827 617h-44v-88h44z"/><path fill="#ea4335" clip-path="url(#a)" d="M827 617h-44v-88h44z"/><path clip-path="url(#a)" d="M895 625h-44v-82h44z"/><path fill="#ea4335" clip-path="url(#a)" d="M895 625h-44v-82h44z"/><path clip-path="url(#a)" d="M963 665h-44v-42h44z"/><path fill="#ea4335" clip-path="url(#a)" d="M963 665h-44v-42h44z"/><path clip-path="url(#a)" d="M1031 706h-44v-4h44z"/><path fill="#ea4335" clip-path="url(#a)" d="M1031 706h-44v-4h44z"/><path clip-path="url(#a)" d="M1098 710h-44v-1h44z"/><path fill="#ea4335" clip-path="url(#a)" d="M1098 710h-44v-1h44z"/><path clip-path="url(#a)" d="M1166 709h-44v-1h44z"/><path fill="#ea4335" clip-path="url(#a)" d="M1166 709h-44v-1h44z"/><path clip-path="url(#a)" d="M1234 710h-44 44z"/><path fill="#ea4335" clip-path="url(#a)" d="M1234 710h-44 44z"/><path clip-path="url(#a)" d="M149 709h-44 44z"/><path fill="#fbbc04" clip-path="url(#a)" d="M149 709h-44 44z"/><path clip-path="url(#a)" d="M217 709h-44 44z"/><path fill="#fbbc04" clip-path="url(#a)" d="M217 709h-44 44z"/><path clip-path="url(#a)" d="M285 709h-44 44z"/><path fill="#fbbc04" clip-path="url(#a)" d="M285 709h-44 44z"/><path clip-path="url(#a)" d="M352 709h-44v-1h44z"/><path fill="#fbbc04" clip-path="url(#a)" d="M352 709h-44v-1h44z"/><path clip-path="url(#a)" d="M420 708h-44v-1h44z"/><path fill="#fbbc04" clip-path="url(#a)" d="M420 708h-44v-1h44z"/><path clip-path="url(#a)" d="M488 707h-44v-1h44z"/><path fill="#fbbc04" clip-path="url(#a)" d="M488 707h-44v-1h44z"/><path clip-path="url(#a)" d="M556 704h-44v-2h44z"/><path fill="#fbbc04" clip-path="url(#a)" d="M556 704h-44v-2h44z"/><path clip-path="url(#a)" d="M624 700h-44v-5h44z"/><path fill="#fbbc04" clip-path="url(#a)" d="M624 700h-44v-5h44z"/><path clip-path="url(#a)" d="M692 686h-44v-12h44z"/><path fill="#fbbc04" clip-path="url(#a)" d="M692 686h-44v-12h44z"/><path clip-path="url(#a)" d="M759 626h-44v-41h44z"/><path fill="#fbbc04" clip-path="url(#a)" d="M759 626h-44v-41h44z"/><path clip-path="url(#a)" d="M827 529h-44v-89h44z"/><path fill="#fbbc04" clip-path="url(#a)" d="M827 529h-44v-89h44z"/><path clip-path="url(#a)" d="M895 543h-44v-82h44z"/><path fill="#fbbc04" clip-path="url(#a)" d="M895 543h-44v-82h44z"/><path clip-path="url(#a)" d="M963 623h-44v-41h44z"/><path fill="#fbbc04" clip-path="url(#a)" d="M963 623h-44v-41h44z"/><path clip-path="url(#a)" d="M1031 702h-44v-3h44z"/><path fill="#fbbc04" clip-path="url(#a)" d="M1031 702h-44v-3h44z"/><path clip-path="url(#a)" d="M1098 709h-44 44z"/><path fill="#fbbc04" clip-path="url(#a)" d="M1098 709h-44 44z"/><path clip-path="url(#a)" d="M1166 708h-44v-1h44z"/><path fill="#fbbc04" clip-path="url(#a)" d="M1166 708h-44v-1h44z"/><path clip-path="url(#a)" d="M1234 710h-44 44z"/><path fill="#fbbc04" clip-path="url(#a)" d="M1234 710h-44 44z"/><path clip-path="url(#a)" d="M149 709h-44v-.5a.5.5 0 01.5-.5h43a.5.5 0 01.5.5z"/><path fill="#34a853" clip-path="url(#a)" d="M149 709h-44v-.5a.5.5 0 01.5-.5h43a.5.5 0 01.5.5z"/><path clip-path="url(#a)" d="M217 709h-44v-.5a.5.5 0 01.5-.5h43a.5.5 0 01.5.5z"/><path fill="#34a853" clip-path="url(#a)" d="M217 709h-44v-.5a.5.5 0 01.5-.5h43a.5.5 0 01.5.5z"/><path clip-path="url(#a)" d="M285 709h-44v-1a1 1 0 011-1h42a1 1 0 011 1z"/><path fill="#34a853" clip-path="url(#a)" d="M285 709h-44v-1a1 1 0 011-1h42a1 1 0 011 1z"/><path clip-path="url(#a)" d="M352 708h-44v-1a1 1 0 011-1h42a1 1 0 011 1z"/><path fill="#34a853" clip-path="url(#a)" d="M352 708h-44v-1a1 1 0 011-1h42a1 1 0 011 1z"/><path clip-path="url(#a)" d="M420 707h-44v-1a1 1 0 011-1h42a1 1 0 011 1z"/><path fill="#34a853" clip-path="url(#a)" d="M420 707h-44v-1a1 1 0 011-1h42a1 1 0 011 1z"/><path clip-path="url(#a)" d="M488 706h-44v-2a2 2 0 012-2h40a2 2 0 012 2z"/><path fill="#34a853" clip-path="url(#a)" d="M488 706h-44v-2a2 2 0 012-2h40a2 2 0 012 2z"/><path clip-path="url(#a)" d="M556 702h-44v-6a2 2 0 012-2h40a2 2 0 012 2z"/><path fill="#34a853" clip-path="url(#a)" d="M556 702h-44v-6a2 2 0 012-2h40a2 2 0 012 2z"/><path clip-path="url(#a)" d="M624 695h-44v-13a2 2 0 012-2h40a2 2 0 012 2z"/><path fill="#34a853" clip-path="url(#a)" d="M624 695h-44v-13a2 2 0 012-2h40a2 2 0 012 2z"/><path clip-path="url(#a)" d="M692 674h-44v-33a2 2 0 012-2h40a2 2 0 012 2z"/><path fill="#34a853" clip-path="url(#a)" d="M692 674h-44v-33a2 2 0 012-2h40a2 2 0 012 2z"/><path clip-path="url(#a)" d="M759 585h-44V462a2 2 0 012-2h40a2 2 0 012 2z"/><path fill="#34a853" clip-path="url(#a)" d="M759 585h-44V462a2 2 0 012-2h40a2 2 0 012 2z"/><path clip-path="url(#a)" d="M827 440h-44V172a2 2 0 012-2h40a2 2 0 012 2z"/><path fill="#34a853" clip-path="url(#a)" d="M827 440h-44V172a2 2 0 012-2h40a2 2 0 012 2z"/><path clip-path="url(#a)" d="M895 461h-44V215a2 2 0 012-2h40a2 2 0 012 2z"/><path fill="#34a853" clip-path="url(#a)" d="M895 461h-44V215a2 2 0 012-2h40a2 2 0 012 2z"/><path clip-path="url(#a)" d="M963 582h-44V457a2 2 0 012-2h40a2 2 0 012 2z"/><path fill="#34a853" clip-path="url(#a)" d="M963 582h-44V457a2 2 0 012-2h40a2 2 0 012 2z"/><path clip-path="url(#a)" d="M1031 699h-44v-9a2 2 0 012-2h40a2 2 0 012 2z"/><path fill="#34a853" clip-path="url(#a)" d="M1031 699h-44v-9a2 2 0 012-2h40a2 2 0 012 2z"/><path clip-path="url(#a)" d="M1098 709h-44v-.5a.5.5 0 01.5-.5h43a.5.5 0 01.5.5z"/><path fill="#34a853" clip-path="url(#a)" d="M1098 709h-44v-.5a.5.5 0 01.5-.5h43a.5.5 0 01.5.5z"/><path clip-path="url(#a)" d="M1166 707h-44v-1a1 1 0 011-1h42a1 1 0 011 1z"/><path fill="#34a853" clip-path="url(#a)" d="M1166 707h-44v-1a1 1 0 011-1h42a1 1 0 011 1z"/><path clip-path="url(#a)" d="M1234 710h-44 44z"/><path fill="#34a853" clip-path="url(#a)" d="M1234 710h-44 44z"/><path fill="#000" d="M656.422 758.9l-2.281-8.594h1.172l1.312 5.64q.203.876.36 1.75.327-1.374.39-1.593l1.625-5.797h1.375l1.234 4.344q.453 1.625.672 3.047.157-.813.422-1.875l1.344-5.516h1.14l-2.343 8.594h-1.11l-1.797-6.547q-.234-.812-.28-1-.126.578-.25 1l-1.813 6.547h-1.172zm13.625-2l1.094.125q-.25.953-.953 1.484-.704.532-1.782.532-1.36 0-2.172-.844-.797-.844-.797-2.36 0-1.562.813-2.421.813-.875 2.094-.875 1.25 0 2.031.843.797.844.797 2.391v.281h-4.64q.062 1.031.577 1.578.516.532 1.297.532.578 0 .985-.297.422-.313.656-.969zm-3.453-1.703h3.468q-.062-.797-.39-1.188-.516-.609-1.313-.609-.734 0-1.234.484-.484.485-.531 1.313zm10.453 1.703l1.094.125q-.25.953-.953 1.484-.704.532-1.782.532-1.36 0-2.172-.844-.797-.844-.797-2.36 0-1.562.813-2.421.813-.875 2.094-.875 1.25 0 2.031.843.797.844.797 2.391v.281h-4.64q.062 1.031.577 1.578.516.532 1.297.532.578 0 .985-.297.422-.313.656-.969zm-3.453-1.703h3.468q-.062-.797-.39-1.188-.516-.609-1.313-.609-.734 0-1.234.484-.484.485-.531 1.313zm6.203 3.703v-8.594h1.062v4.906l2.485-2.53h1.375l-2.39 2.296 2.624 3.922h-1.297l-2.062-3.188-.735.72v2.468h-1.062zM68.6 709.666q0-1.532.313-2.454.312-.937.921-1.437.625-.5 1.563-.5.687 0 1.203.281.531.281.875.813.344.515.531 1.265.188.75.188 2.032 0 1.515-.313 2.437-.297.922-.922 1.438-.609.5-1.562.5-1.235 0-1.953-.891-.844-1.063-.844-3.484zm1.078 0q0 2.109.5 2.812.5.703 1.219.703.734 0 1.219-.703.5-.703.5-2.812 0-2.125-.5-2.813-.485-.703-1.235-.703-.719 0-1.156.61-.547.78-.547 2.906zM46.147 570.051v1.016h-5.688q0-.375.125-.735.22-.578.688-1.14.484-.563 1.39-1.297 1.407-1.156 1.891-1.828.5-.672.5-1.266 0-.625-.453-1.047-.453-.437-1.172-.437-.765 0-1.219.453-.453.453-.468 1.265l-1.078-.109q.109-1.219.828-1.844.734-.64 1.968-.64 1.235 0 1.953.687.72.688.72 1.703 0 .516-.22 1.016-.203.484-.703 1.047-.484.547-1.609 1.5-.953.797-1.234 1.094-.266.28-.438.562h4.219zm1.453-3.219q0-1.531.313-2.453.312-.937.921-1.437.625-.5 1.563-.5.687 0 1.203.28.531.282.875.813.344.516.531 1.266.188.75.188 2.031 0 1.516-.313 2.438-.297.922-.922 1.437-.609.5-1.562.5-1.234 0-1.953-.89-.844-1.063-.844-3.485zm1.078 0q0 2.11.5 2.813.5.703 1.219.703.734 0 1.219-.703.5-.703.5-2.813 0-2.125-.5-2.812-.485-.703-1.235-.703-.718 0-1.156.609-.547.781-.547 2.906zm5.922 0q0-1.531.313-2.453.312-.937.921-1.437.625-.5 1.563-.5.687 0 1.203.28.531.282.875.813.344.516.531 1.266.188.75.188 2.031 0 1.516-.313 2.438-.297.922-.922 1.437-.609.5-1.562.5-1.234 0-1.953-.89-.844-1.063-.844-3.485zm1.078 0q0 2.11.5 2.813.5.703 1.219.703.734 0 1.219-.703.5-.703.5-2.813 0-2.125-.5-2.812-.485-.703-1.235-.703-.718 0-1.156.609-.547.781-.547 2.906zm5.922 0q0-1.531.313-2.453.312-.937.921-1.437.625-.5 1.563-.5.687 0 1.203.28.531.282.875.813.344.516.531 1.266.188.75.188 2.031 0 1.516-.313 2.438-.297.922-.922 1.437-.609.5-1.562.5-1.235 0-1.953-.89-.844-1.063-.844-3.485zm1.078 0q0 2.11.5 2.813.5.703 1.219.703.734 0 1.219-.703.5-.703.5-2.813 0-2.125-.5-2.812-.485-.703-1.235-.703-.718 0-1.156.609-.547.781-.547 2.906zm5.922 0q0-1.531.313-2.453.312-.937.921-1.437.625-.5 1.563-.5.687 0 1.203.28.531.282.875.813.344.516.531 1.266.188.75.188 2.031 0 1.516-.313 2.438-.297.922-.922 1.437-.609.5-1.562.5-1.235 0-1.953-.89-.844-1.063-.844-3.485zm1.078 0q0 2.11.5 2.813.5.703 1.219.703.734 0 1.219-.703.5-.703.5-2.813 0-2.125-.5-2.812-.485-.703-1.235-.703-.719 0-1.156.609-.547.781-.547 2.906zM43.975 428.233v-2.062h-3.719v-.969l3.922-5.562h.86v5.562h1.156v.969h-1.157v2.062h-1.062zm0-3.03v-3.86l-2.688 3.86h2.688zm3.625-1.204q0-1.531.313-2.453.312-.938.921-1.438.625-.5 1.563-.5.687 0 1.203.282.531.28.875.812.344.516.531 1.266.188.75.188 2.031 0 1.516-.313 2.437-.297.922-.922 1.438-.609.5-1.562.5-1.234 0-1.953-.89-.844-1.063-.844-3.485zm1.078 0q0 2.11.5 2.812.5.704 1.219.704.734 0 1.219-.704.5-.703.5-2.812 0-2.125-.5-2.813-.485-.703-1.235-.703-.718 0-1.156.61-.547.781-.547 2.906zm5.922 0q0-1.531.313-2.453.312-.938.921-1.438.625-.5 1.563-.5.687 0 1.203.282.531.28.875.812.344.516.531 1.266.188.75.188 2.031 0 1.516-.313 2.437-.297.922-.922 1.438-.609.5-1.562.5-1.234 0-1.953-.89-.844-1.063-.844-3.485zm1.078 0q0 2.11.5 2.812.5.704 1.219.704.734 0 1.219-.704.5-.703.5-2.812 0-2.125-.5-2.813-.485-.703-1.235-.703-.718 0-1.156.61-.547.781-.547 2.906zm5.922 0q0-1.531.313-2.453.312-.938.921-1.438.625-.5 1.563-.5.687 0 1.203.282.531.28.875.812.344.516.531 1.266.188.75.188 2.031 0 1.516-.313 2.437-.297.922-.922 1.438-.609.5-1.562.5-1.235 0-1.953-.89-.844-1.063-.844-3.485zm1.078 0q0 2.11.5 2.812.5.704 1.219.704.734 0 1.219-.704.5-.703.5-2.812 0-2.125-.5-2.813-.485-.703-1.235-.703-.718 0-1.156.61-.547.781-.547 2.906zm5.922 0q0-1.531.313-2.453.312-.938.921-1.438.625-.5 1.563-.5.687 0 1.203.282.531.28.875.812.344.516.531 1.266.188.75.188 2.031 0 1.516-.313 2.437-.297.922-.922 1.438-.609.5-1.562.5-1.235 0-1.953-.89-.844-1.063-.844-3.485zm1.078 0q0 2.11.5 2.812.5.704 1.219.704.734 0 1.219-.704.5-.703.5-2.812 0-2.125-.5-2.813-.485-.703-1.235-.703-.719 0-1.156.61-.547.781-.547 2.906zM46.069 278.916l-1.047.078q-.14-.625-.39-.907-.438-.453-1.063-.453-.5 0-.89.282-.485.375-.782 1.078-.281.687-.297 1.968.375-.578.922-.859.562-.281 1.172-.281 1.047 0 1.781.781.75.781.75 2 0 .813-.36 1.516-.343.687-.953 1.062-.609.36-1.374.36-1.329 0-2.157-.97-.828-.968-.828-3.187 0-2.5.922-3.625.797-.984 2.156-.984 1.016 0 1.657.578.656.563.78 1.563zm-4.297 3.703q0 .547.219 1.047.234.484.64.75.422.265.89.265.657 0 1.142-.531.484-.547.484-1.469 0-.89-.484-1.406-.47-.516-1.188-.516-.719 0-1.219.516-.484.516-.484 1.344zm5.828-1.453q0-1.532.313-2.454.312-.937.921-1.437.625-.5 1.563-.5.687 0 1.203.281.531.281.875.813.344.515.531 1.265.188.75.188 2.032 0 1.515-.313 2.437-.297.922-.922 1.438-.609.5-1.562.5-1.234 0-1.953-.891-.844-1.063-.844-3.484zm1.078 0q0 2.109.5 2.812.5.703 1.219.703.734 0 1.219-.703.5-.703.5-2.812 0-2.125-.5-2.813-.485-.703-1.235-.703-.718 0-1.156.61-.547.78-.547 2.906zm5.922 0q0-1.532.313-2.454.312-.937.921-1.437.625-.5 1.563-.5.687 0 1.203.281.531.281.875.813.344.515.531 1.265.188.75.188 2.032 0 1.515-.313 2.437-.297.922-.922 1.438-.609.5-1.562.5-1.234 0-1.953-.891-.844-1.063-.844-3.484zm1.078 0q0 2.109.5 2.812.5.703 1.219.703.734 0 1.219-.703.5-.703.5-2.812 0-2.125-.5-2.813-.485-.703-1.235-.703-.718 0-1.156.61-.547.78-.547 2.906zm5.922 0q0-1.532.313-2.454.312-.937.921-1.437.625-.5 1.563-.5.687 0 1.203.281.531.281.875.813.344.515.531 1.265.188.75.188 2.032 0 1.515-.313 2.437-.297.922-.922 1.438-.609.5-1.562.5-1.235 0-1.953-.891-.844-1.063-.844-3.484zm1.078 0q0 2.109.5 2.812.5.703 1.219.703.734 0 1.219-.703.5-.703.5-2.812 0-2.125-.5-2.813-.485-.703-1.235-.703-.718 0-1.156.61-.547.78-.547 2.906zm5.922 0q0-1.532.313-2.454.312-.937.921-1.437.625-.5 1.563-.5.687 0 1.203.281.531.281.875.813.344.515.531 1.265.188.75.188 2.032 0 1.515-.313 2.437-.297.922-.922 1.438-.609.5-1.562.5-1.235 0-1.953-.891-.844-1.063-.844-3.484zm1.078 0q0 2.109.5 2.812.5.703 1.219.703.734 0 1.219-.703.5-.703.5-2.812 0-2.125-.5-2.813-.485-.703-1.235-.703-.719 0-1.156.61-.547.78-.547 2.906zM42.225 137.91q-.656-.25-.984-.687-.313-.453-.313-1.063 0-.937.672-1.578.688-.64 1.797-.64 1.125 0 1.812.656.688.656.688 1.594 0 .593-.313 1.03-.312.438-.953.688.797.25 1.203.829.407.578.407 1.375 0 1.093-.782 1.843-.765.75-2.047.75-1.265 0-2.046-.75-.782-.75-.782-1.875 0-.843.422-1.406.438-.562 1.219-.766zm-.219-1.796q0 .609.39 1 .407.39 1.032.39.61 0 1-.375.39-.39.39-.953 0-.578-.405-.969-.407-.406-1-.406-.61 0-1.016.39-.39.391-.39.923zm-.328 3.968q0 .453.203.875.219.422.64.657.423.234.907.234.75 0 1.235-.484.5-.485.5-1.235 0-.765-.5-1.265-.5-.5-1.266-.5-.75 0-1.234.5-.485.484-.485 1.218zm5.922-1.75q0-1.531.313-2.453.312-.937.921-1.437.625-.5 1.563-.5.687 0 1.203.28.531.282.875.813.344.516.531 1.266.188.75.188 2.031 0 1.516-.313 2.438-.297.922-.922 1.437-.609.5-1.562.5-1.234 0-1.953-.89-.844-1.063-.844-3.485zm1.078 0q0 2.11.5 2.813.5.703 1.219.703.734 0 1.219-.703.5-.703.5-2.813 0-2.125-.5-2.812-.485-.703-1.235-.703-.718 0-1.156.609-.547.781-.547 2.906zm5.922 0q0-1.531.313-2.453.312-.937.921-1.437.625-.5 1.563-.5.687 0 1.203.28.531.282.875.813.344.516.531 1.266.188.75.188 2.031 0 1.516-.313 2.438-.297.922-.922 1.437-.609.5-1.562.5-1.234 0-1.953-.89-.844-1.063-.844-3.485zm1.078 0q0 2.11.5 2.813.5.703 1.219.703.734 0 1.219-.703.5-.703.5-2.813 0-2.125-.5-2.812-.485-.703-1.235-.703-.718 0-1.156.609-.547.781-.547 2.906zm5.922 0q0-1.531.313-2.453.312-.937.921-1.437.625-.5 1.563-.5.687 0 1.203.28.531.282.875.813.344.516.531 1.266.188.75.188 2.031 0 1.516-.313 2.438-.297.922-.922 1.437-.609.5-1.562.5-1.235 0-1.953-.89-.844-1.063-.844-3.485zm1.078 0q0 2.11.5 2.813.5.703 1.219.703.734 0 1.219-.703.5-.703.5-2.813 0-2.125-.5-2.812-.485-.703-1.235-.703-.718 0-1.156.609-.547.781-.547 2.906zm5.922 0q0-1.531.313-2.453.312-.937.921-1.437.625-.5 1.563-.5.687 0 1.203.28.531.282.875.813.344.516.531 1.266.188.75.188 2.031 0 1.516-.313 2.438-.297.922-.922 1.437-.609.5-1.562.5-1.235 0-1.953-.89-.844-1.063-.844-3.485zm1.078 0q0 2.11.5 2.813.5.703 1.219.703.734 0 1.219-.703.5-.703.5-2.813 0-2.125-.5-2.812-.485-.703-1.235-.703-.719 0-1.156.609-.547.781-.547 2.906zm56.252 587.552v1.016h-5.687q0-.375.125-.734.218-.579.687-1.141.485-.563 1.39-1.297 1.407-1.156 1.891-1.828.5-.672.5-1.266 0-.625-.453-1.047-.453-.437-1.172-.437-.765 0-1.218.453-.453.453-.47 1.266l-1.077-.11q.11-1.218.828-1.843.734-.641 1.969-.641 1.234 0 1.953.688.719.687.719 1.703 0 .515-.22 1.015-.202.485-.702 1.047-.485.547-1.61 1.5-.953.797-1.234 1.094-.266.281-.438.562h4.22zm3.078-3.64q-.656-.25-.984-.688-.313-.453-.313-1.062 0-.938.672-1.578.688-.641 1.797-.641 1.125 0 1.813.656.687.656.687 1.594 0 .594-.312 1.031-.313.438-.953.688.796.25 1.203.828.406.578.406 1.375 0 1.094-.781 1.844-.766.75-2.047.75-1.266 0-2.047-.75-.781-.75-.781-1.875 0-.844.422-1.407.437-.562 1.218-.765zm-.218-1.797q0 .61.39 1 .406.39 1.031.39.61 0 1-.375.391-.39.391-.953 0-.578-.406-.968-.406-.407-1-.407-.61 0-1.016.391-.39.39-.39.922zm-.329 3.969q0 .453.204.875.218.421.64.656.422.234.906.234.75 0 1.235-.484.5-.485.5-1.235 0-.765-.5-1.265-.5-.5-1.266-.5-.75 0-1.234.5-.485.484-.485 1.219zm65.296 1.468v1.016h-5.687q0-.375.125-.734.219-.579.687-1.141.485-.563 1.39-1.297 1.407-1.156 1.892-1.828.5-.672.5-1.266 0-.625-.454-1.047-.453-.437-1.172-.437-.765 0-1.218.453-.453.453-.469 1.266l-1.078-.11q.11-1.218.828-1.843.734-.641 1.969-.641 1.234 0 1.953.688.719.687.719 1.703 0 .515-.22 1.015-.202.485-.702 1.047-.485.547-1.61 1.5-.953.797-1.234 1.094-.266.281-.438.562h4.22zm1.61-.968l1.015-.094q.125.719.485 1.047.375.312.937.312.484 0 .844-.219.375-.234.61-.593.234-.375.39-1 .156-.64.156-1.297v-.219q-.312.5-.86.828-.546.313-1.187.313-1.078 0-1.812-.766-.735-.781-.735-2.047 0-1.312.766-2.11.781-.796 1.938-.796.828 0 1.515.453.703.453 1.063 1.297.359.828.359 2.406 0 1.64-.36 2.625-.343.969-1.062 1.485-.703.5-1.64.5-1.016 0-1.657-.547-.64-.563-.765-1.578zm4.312-3.797q0-.907-.484-1.438-.469-.531-1.156-.531-.704 0-1.235.578-.516.563-.516 1.485 0 .812.5 1.328.5.515 1.22.515.734 0 1.202-.515.47-.516.47-1.422zm56.358 3.515l1.063-.14q.172.89.61 1.297.437.39 1.062.39.75 0 1.265-.515.516-.516.516-1.282 0-.718-.484-1.187-.469-.485-1.203-.485-.297 0-.75.125l.125-.937q.109.016.171.016.672 0 1.204-.344.546-.36.546-1.094 0-.578-.39-.953-.39-.39-1.016-.39-.61 0-1.031.39-.406.39-.516 1.156l-1.062-.187q.187-1.047.875-1.625.687-.594 1.703-.594.703 0 1.297.313.594.296.906.812.313.516.313 1.11 0 .546-.297 1.015-.297.453-.875.719.75.172 1.172.734.421.547.421 1.39 0 1.126-.828 1.907-.812.781-2.062.781-1.125 0-1.875-.672-.75-.687-.86-1.75zm7-1.968q0-1.532.313-2.454.312-.937.922-1.437.625-.5 1.562-.5.688 0 1.203.281.532.281.875.813.344.515.532 1.265.187.75.187 2.032 0 1.515-.312 2.437-.297.922-.922 1.438-.61.5-1.563.5-1.234 0-1.953-.891-.844-1.063-.844-3.484zm1.079 0q0 2.109.5 2.812.5.703 1.218.703.735 0 1.22-.703.5-.703.5-2.812 0-2.125-.5-2.813-.485-.703-1.235-.703-.719 0-1.157.61-.546.78-.546 2.906zm59.749 1.968l1.062-.14q.172.89.61 1.297.437.39 1.062.39.75 0 1.266-.515.515-.516.515-1.282 0-.718-.484-1.187-.469-.485-1.203-.485-.297 0-.75.125l.125-.937q.11.016.172.016.671 0 1.203-.344.547-.36.547-1.094 0-.578-.391-.953-.39-.39-1.016-.39-.61 0-1.03.39-.407.39-.517 1.156l-1.062-.187q.187-1.047.875-1.625.687-.594 1.703-.594.703 0 1.297.313.594.296.906.812.313.516.313 1.11 0 .546-.297 1.015-.297.453-.875.719.75.172 1.172.734.422.547.422 1.39 0 1.126-.829 1.907-.812.781-2.062.781-1.125 0-1.875-.672-.75-.687-.86-1.75zm10.968 2.266h-1.047v-6.719q-.39.36-1.015.735-.61.359-1.094.53v-1.015q.875-.422 1.531-1 .672-.594.953-1.156h.672v8.625zm56.859-2.266l1.062-.14q.172.89.61 1.297.437.39 1.062.39.75 0 1.266-.515.515-.516.515-1.282 0-.718-.484-1.187-.469-.485-1.203-.485-.297 0-.75.125l.125-.937q.11.016.172.016.672 0 1.203-.344.547-.36.547-1.094 0-.578-.391-.953-.39-.39-1.016-.39-.609 0-1.03.39-.407.39-.516 1.156l-1.063-.187q.188-1.047.875-1.625.688-.594 1.703-.594.703 0 1.297.313.594.296.906.812.313.516.313 1.11 0 .546-.297 1.015-.297.453-.875.719.75.172 1.172.734.422.547.422 1.39 0 1.126-.828 1.907-.813.781-2.063.781-1.125 0-1.875-.672-.75-.687-.86-1.75zm12.547 1.25v1.016h-5.688q0-.375.125-.734.219-.579.688-1.141.484-.563 1.39-1.297 1.406-1.156 1.89-1.828.5-.672.5-1.266 0-.625-.452-1.047-.453-.437-1.172-.437-.766 0-1.219.453-.453.453-.469 1.266l-1.078-.11q.11-1.218.828-1.843.735-.641 1.969-.641t1.953.688q.719.687.719 1.703 0 .515-.219 1.015-.203.485-.703 1.047-.484.547-1.61 1.5-.952.797-1.234 1.094-.265.281-.437.562h4.219zm55.28-1.25l1.062-.14q.172.89.61 1.297.437.39 1.062.39.75 0 1.266-.515.515-.516.515-1.282 0-.718-.484-1.187-.469-.485-1.203-.485-.297 0-.75.125l.125-.937q.11.016.172.016.672 0 1.203-.344.547-.36.547-1.094 0-.578-.39-.953-.392-.39-1.017-.39-.609 0-1.03.39-.407.39-.516 1.156l-1.063-.187q.188-1.047.875-1.625.688-.594 1.703-.594.703 0 1.297.313.594.296.906.812.313.516.313 1.11 0 .546-.297 1.015-.297.453-.875.719.75.172 1.172.734.422.547.422 1.39 0 1.126-.828 1.907-.813.781-2.063.781-1.125 0-1.875-.672-.75-.687-.86-1.75zm7 0l1.062-.14q.172.89.61 1.297.437.39 1.062.39.75 0 1.266-.515.515-.516.515-1.282 0-.718-.484-1.187-.469-.485-1.203-.485-.297 0-.75.125l.125-.937q.11.016.172.016.672 0 1.203-.344.547-.36.547-1.094 0-.578-.39-.953-.392-.39-1.017-.39-.609 0-1.03.39-.407.39-.516 1.156l-1.063-.187q.188-1.047.875-1.625.688-.594 1.703-.594.703 0 1.297.313.594.296.906.812.313.516.313 1.11 0 .546-.297 1.015-.297.453-.875.719.75.172 1.172.734.422.547.422 1.39 0 1.126-.828 1.907-.813.781-2.063.781-1.125 0-1.875-.672-.75-.687-.86-1.75zm60.827 0l1.062-.14q.172.89.61 1.297.437.39 1.062.39.75 0 1.266-.515.515-.516.515-1.282 0-.718-.484-1.187-.469-.485-1.203-.485-.297 0-.75.125l.125-.937q.11.016.172.016.672 0 1.203-.344.547-.36.547-1.094 0-.578-.39-.953-.391-.39-1.016-.39-.61 0-1.032.39-.406.39-.515 1.156l-1.063-.187q.188-1.047.875-1.625.688-.594 1.703-.594.703 0 1.297.313.594.296.906.812.313.516.313 1.11 0 .546-.297 1.015-.297.453-.875.719.75.172 1.172.734.422.547.422 1.39 0 1.126-.828 1.907-.813.781-2.063.781-1.125 0-1.875-.672-.75-.687-.86-1.75zm10.375 2.266v-2.063h-3.719v-.968l3.922-5.563h.86v5.563h1.156v.968h-1.157v2.063h-1.062zm0-3.031v-3.86l-2.688 3.86h2.688zm57.452.765l1.062-.14q.172.89.61 1.297.437.39 1.062.39.75 0 1.266-.515.516-.516.516-1.282 0-.718-.485-1.187-.469-.485-1.203-.485-.297 0-.75.125l.125-.937q.11.016.172.016.672 0 1.203-.344.547-.36.547-1.094 0-.578-.39-.953-.391-.39-1.016-.39-.61 0-1.032.39-.406.39-.515 1.156l-1.063-.187q.188-1.047.875-1.625.688-.594 1.703-.594.704 0 1.297.313.594.296.907.812.312.516.312 1.11 0 .546-.297 1.015-.297.453-.875.719.75.172 1.172.734.422.547.422 1.39 0 1.126-.828 1.907-.813.781-2.063.781-1.125 0-1.875-.672-.75-.687-.86-1.75zm7 .016l1.11-.094q.124.813.562 1.219.453.406 1.094.406.75 0 1.28-.578.532-.578.532-1.515 0-.907-.516-1.422-.5-.532-1.328-.532-.5 0-.922.235-.406.234-.64.593l-.985-.125.829-4.406h4.28v1h-3.437l-.453 2.313q.766-.547 1.61-.547 1.125 0 1.89.781.781.781.781 2.016 0 1.156-.671 2.015-.829 1.032-2.25 1.032-1.172 0-1.922-.657-.735-.656-.844-1.734zm60.827-.016l1.063-.14q.171.89.609 1.297.437.39 1.062.39.75 0 1.266-.515.516-.516.516-1.282 0-.718-.485-1.187-.468-.485-1.203-.485-.297 0-.75.125l.125-.937q.11.016.172.016.672 0 1.203-.344.547-.36.547-1.094 0-.578-.39-.953-.391-.39-1.016-.39-.61 0-1.032.39-.406.39-.515 1.156l-1.063-.187q.188-1.047.875-1.625.688-.594 1.703-.594.704 0 1.297.313.594.296.907.812.312.516.312 1.11 0 .546-.297 1.015-.297.453-.875.719.75.172 1.172.734.422.547.422 1.39 0 1.126-.828 1.907-.813.781-2.063.781-1.125 0-1.875-.672-.75-.687-.859-1.75zm12.469-4.218l-1.047.078q-.14-.625-.39-.907-.438-.453-1.063-.453-.5 0-.89.282-.485.375-.782 1.078-.281.687-.297 1.968.375-.578.922-.859.562-.281 1.172-.281 1.047 0 1.781.781.75.781.75 2 0 .813-.36 1.516-.343.687-.952 1.062-.61.36-1.375.36-1.329 0-2.157-.97-.828-.968-.828-3.187 0-2.5.922-3.625.797-.984 2.156-.984 1.016 0 1.657.578.656.563.78 1.563zm-4.297 3.703q0 .547.219 1.047.234.484.64.75.422.265.89.265.657 0 1.141-.531.485-.547.485-1.469 0-.89-.485-1.406-.468-.516-1.187-.516-.719 0-1.219.516-.484.516-.484 1.344zm59.655.515l1.063-.14q.171.89.609 1.297.437.39 1.062.39.75 0 1.266-.515.516-.516.516-1.282 0-.718-.485-1.187-.468-.485-1.203-.485-.297 0-.75.125l.125-.937q.11.016.172.016.672 0 1.203-.344.547-.36.547-1.094 0-.578-.39-.953-.391-.39-1.016-.39-.61 0-1.031.39-.407.39-.516 1.156l-1.063-.187q.188-1.047.875-1.625.688-.594 1.704-.594.703 0 1.296.313.594.296.907.812.312.516.312 1.11 0 .546-.297 1.015-.297.453-.875.719.75.172 1.172.734.422.547.422 1.39 0 1.126-.828 1.907-.813.781-2.063.781-1.125 0-1.875-.672-.75-.687-.859-1.75zm7.063-5.203v-1.015h5.562v.828q-.812.875-1.625 2.328-.797 1.437-1.234 2.969-.328 1.078-.407 2.359h-1.093q.015-1.016.39-2.453.391-1.438 1.094-2.766.719-1.328 1.531-2.25h-4.218zm60.764 5.203l1.063-.14q.172.89.61 1.297.437.39 1.062.39.75 0 1.265-.515.516-.516.516-1.282 0-.718-.485-1.187-.468-.485-1.203-.485-.297 0-.75.125l.125-.937q.11.016.172.016.672 0 1.203-.344.547-.36.547-1.094 0-.578-.39-.953-.391-.39-1.016-.39-.61 0-1.031.39-.407.39-.516 1.156l-1.062-.187q.187-1.047.875-1.625.687-.594 1.703-.594.703 0 1.297.313.593.296.906.812.312.516.312 1.11 0 .546-.297 1.015-.296.453-.875.719.75.172 1.172.734.422.547.422 1.39 0 1.126-.828 1.907-.812.781-2.062.781-1.125 0-1.875-.672-.75-.687-.86-1.75zm8.625-2.39q-.656-.25-.984-.688-.313-.453-.313-1.062 0-.938.672-1.578.688-.641 1.797-.641 1.125 0 1.813.656.687.656.687 1.594 0 .594-.312 1.031-.313.438-.954.688.797.25 1.204.828.406.578.406 1.375 0 1.094-.781 1.844-.766.75-2.047.75-1.266 0-2.047-.75-.781-.75-.781-1.875 0-.844.421-1.407.438-.562 1.22-.765zm-.219-1.797q0 .61.391 1 .406.39 1.031.39.61 0 1-.375.39-.39.39-.953 0-.578-.405-.968-.407-.407-1-.407-.61 0-1.016.391-.39.39-.39.922zm-.328 3.969q0 .453.203.875.22.421.641.656.422.234.906.234.75 0 1.235-.484.5-.485.5-1.235 0-.765-.5-1.265-.5-.5-1.266-.5-.75 0-1.234.5-.485.484-.485 1.219zm59.749.218l1.063-.14q.172.89.61 1.297.437.39 1.062.39.75 0 1.265-.515.516-.516.516-1.282 0-.718-.484-1.187-.47-.485-1.204-.485-.296 0-.75.125l.125-.937q.11.016.172.016.672 0 1.203-.344.547-.36.547-1.094 0-.578-.39-.953-.391-.39-1.016-.39-.61 0-1.031.39-.406.39-.516 1.156l-1.062-.187q.187-1.047.875-1.625.687-.594 1.703-.594.703 0 1.297.313.593.296.906.812.312.516.312 1.11 0 .546-.296 1.015-.297.453-.875.719.75.172 1.171.734.422.547.422 1.39 0 1.126-.828 1.907-.812.781-2.062.781-1.125 0-1.875-.672-.75-.687-.86-1.75zm7.157.282l1.015-.094q.125.719.485 1.047.375.312.937.312.484 0 .844-.219.375-.234.61-.593.234-.375.39-1 .156-.64.156-1.297v-.219q-.313.5-.86.828-.546.313-1.187.313-1.078 0-1.812-.766-.735-.781-.735-2.047 0-1.312.766-2.11.781-.796 1.937-.796.829 0 1.516.453.703.453 1.063 1.297.359.828.359 2.406 0 1.64-.36 2.625-.343.969-1.062 1.485-.703.5-1.64.5-1.016 0-1.657-.547-.64-.563-.765-1.578zm4.312-3.797q0-.907-.484-1.438-.47-.531-1.157-.531-.703 0-1.234.578-.516.563-.516 1.485 0 .812.5 1.328.5.515 1.22.515.734 0 1.202-.515.469-.516.469-1.422zm59.733 5.781v-2.063h-3.718v-.968l3.921-5.563h.86v5.563h1.156v.968h-1.156v2.063h-1.063zm0-3.031v-3.86l-2.687 3.86h2.687zm3.625-1.203q0-1.532.313-2.454.312-.937.922-1.437.625-.5 1.562-.5.688 0 1.203.281.532.281.875.813.344.515.532 1.265.187.75.187 2.032 0 1.515-.312 2.437-.297.922-.922 1.438-.61.5-1.563.5-1.234 0-1.953-.891-.844-1.063-.844-3.484zm1.078 0q0 2.109.5 2.812.5.703 1.22.703.734 0 1.218-.703.5-.703.5-2.812 0-2.125-.5-2.813-.484-.703-1.234-.703-.72 0-1.157.61-.547.78-.547 2.906zm63.124 4.234v-2.063h-3.718v-.968l3.922-5.563h.859v5.563h1.156v.968h-1.156v2.063h-1.063zm0-3.031v-3.86l-2.687 3.86h2.687zm7.594 3.031h-1.047v-6.719q-.39.36-1.015.735-.61.359-1.094.53v-1.015q.875-.422 1.531-1 .672-.594.953-1.156h.672v8.625zm34.734 0v-2.063h-3.72v-.968l3.923-5.563h.859v5.563h1.156v.968h-1.156v2.063h-1.063zm0-3.031v-3.86l-2.688 3.86h2.688zm9.171 2.015v1.016h-5.687q0-.375.125-.734.219-.579.687-1.141.485-.563 1.391-1.297 1.406-1.156 1.89-1.828.5-.672.5-1.266 0-.625-.452-1.047-.454-.437-1.172-.437-.766 0-1.22.453-.452.453-.468 1.266l-1.078-.11q.11-1.218.828-1.843.735-.641 1.969-.641t1.953.688q.719.687.719 1.703 0 .515-.219 1.015-.203.485-.703 1.047-.484.547-1.61 1.5-.953.797-1.234 1.094-.265.281-.437.562h4.218zm8.813.25q-.594.5-1.14.703-.532.204-1.157.204-1.031 0-1.578-.5-.547-.5-.547-1.282 0-.453.203-.828.203-.39.547-.61.344-.234.766-.343.297-.094.937-.172 1.266-.14 1.875-.36v-.265q0-.656-.297-.922-.406-.343-1.203-.343-.734 0-1.094.265-.359.25-.53.906l-1.032-.14q.14-.656.469-1.063.328-.406.937-.625.61-.218 1.406-.218.797 0 1.297.187.5.188.735.469.234.281.328.719.047.265.047.968v1.407q0 1.468.062 1.859.078.39.281.75h-1.109q-.156-.328-.203-.766zm-.094-2.359q-.578.234-1.719.406-.656.094-.921.219-.266.11-.422.328-.141.219-.141.5 0 .422.313.703.328.281.937.281.61 0 1.078-.265.485-.266.703-.735.172-.359.172-1.046v-.391zm3.031 3.125v-6.219h.938v.875q.687-1.015 1.984-1.015.563 0 1.032.203.484.203.718.531.235.328.328.766.047.296.047 1.03v3.829h-1.047v-3.781q0-.657-.125-.969-.125-.313-.437-.5-.313-.203-.734-.203-.672 0-1.172.437-.485.422-.485 1.61v3.406h-1.047zm11.032 0v-.781q-.594.922-1.735.922-.75 0-1.375-.407-.625-.422-.968-1.156-.344-.734-.344-1.687 0-.922.312-1.688.313-.765.938-1.156.625-.406 1.39-.406.563 0 1 .234.438.234.72.61v-3.079h1.046v8.594h-.984zm-3.328-3.11q0 1.204.5 1.798.5.578 1.187.578.688 0 1.172-.563.484-.562.484-1.719 0-1.28-.5-1.875-.484-.593-1.203-.593-.703 0-1.172.578-.468.562-.468 1.797zm8.906 0q0-1.734.953-2.562.797-.687 1.953-.687 1.281 0 2.094.843.828.828.828 2.313 0 1.203-.36 1.89-.359.688-1.062 1.079-.688.375-1.5.375-1.297 0-2.11-.829-.796-.843-.796-2.421zm1.078 0q0 1.188.516 1.782.53.594 1.312.594.797 0 1.313-.594.515-.594.515-1.813 0-1.156-.531-1.75-.516-.593-1.297-.593-.781 0-1.313.593-.515.578-.515 1.782zm8.031 3.11l-2.36-6.219h1.11l1.344 3.719q.203.61.39 1.25.141-.484.391-1.172l1.39-3.797h1.079l-2.36 6.219h-.984zm8.531-2l1.094.125q-.25.953-.953 1.484-.703.532-1.781.532-1.36 0-2.172-.844-.797-.844-.797-2.36 0-1.562.813-2.421.812-.875 2.093-.875 1.25 0 2.032.843.796.844.796 2.391v.281h-4.64q.062 1.031.578 1.578.516.532 1.297.532.578 0 .984-.297.422-.313.656-.969zm-3.453-1.703h3.469q-.063-.797-.39-1.188-.516-.609-1.313-.609-.734 0-1.234.484-.485.485-.532 1.313zm6.188 3.703v-6.219h.953v.938q.36-.657.656-.86.313-.218.688-.218.53 0 1.078.328l-.36.984q-.39-.234-.765-.234-.36 0-.64.218-.266.204-.376.579-.187.562-.187 1.218v3.266h-1.047zm19.608-8.594h1.14v4.969q0 1.297-.296 2.063-.297.75-1.063 1.234-.765.469-2 .469-1.203 0-1.984-.407-.766-.422-1.094-1.203-.328-.797-.328-2.156v-4.969h1.14v4.953q0 1.125.204 1.657.219.53.719.828.515.281 1.25.281 1.25 0 1.78-.563.532-.578.532-2.203v-4.953zm3.234 8.594v-6.219h.938v.875q.688-1.015 1.984-1.015.563 0 1.032.203.484.203.718.531.235.328.328.766.047.296.047 1.03v3.829h-1.047v-3.781q0-.657-.125-.969-.125-.313-.437-.5-.313-.203-.734-.203-.672 0-1.172.437-.485.422-.485 1.61v3.406h-1.047zm11.032 0v-.781q-.594.922-1.735.922-.75 0-1.375-.407-.625-.422-.968-1.156-.344-.734-.344-1.687 0-.922.312-1.688.313-.765.938-1.156.625-.406 1.39-.406.563 0 1 .234.438.234.72.61v-3.079h1.046v8.594h-.984zm-3.328-3.11q0 1.204.5 1.798.5.578 1.187.578.688 0 1.172-.563.484-.562.484-1.719 0-1.28-.5-1.875-.484-.593-1.203-.593-.703 0-1.172.578-.468.562-.468 1.797zm10.546 1.11l1.094.125q-.25.953-.953 1.484-.703.532-1.781.532-1.36 0-2.172-.844-.797-.844-.797-2.36 0-1.562.813-2.421.812-.875 2.093-.875 1.25 0 2.032.843.796.844.796 2.391v.281h-4.64q.062 1.031.578 1.578.516.532 1.297.532.578 0 .984-.297.422-.313.656-.969zm-3.453-1.703h3.47q-.063-.797-.392-1.188-.515-.609-1.312-.609-.734 0-1.234.484-.485.485-.532 1.313zm6.188 3.703v-6.219h.953v.938q.36-.657.656-.86.313-.218.688-.218.531 0 1.078.328l-.36.984q-.39-.234-.765-.234-.36 0-.64.218-.266.204-.376.579-.187.562-.187 1.218v3.266h-1.047zm12.265-1.016v1.016h-5.687q0-.375.125-.734.219-.579.688-1.141.484-.563 1.39-1.297 1.406-1.156 1.89-1.828.5-.672.5-1.266 0-.625-.452-1.047-.454-.437-1.172-.437-.766 0-1.219.453-.453.453-.469 1.266l-1.078-.11q.11-1.218.828-1.843.735-.641 1.969-.641t1.953.688q.719.687.719 1.703 0 .515-.219 1.015-.203.485-.703 1.047-.484.547-1.61 1.5-.953.797-1.234 1.094-.265.281-.437.562h4.218zm3.079-3.64q-.657-.25-.985-.688-.312-.453-.312-1.062 0-.938.672-1.578.687-.641 1.796-.641 1.125 0 1.813.656t.688 1.594q0 .594-.313 1.031-.313.438-.953.688.797.25 1.203.828t.406 1.375q0 1.094-.781 1.844-.766.75-2.047.75-1.266 0-2.047-.75-.781-.75-.781-1.875 0-.844.422-1.407.437-.562 1.219-.765zm-.22-1.797q0 .61.391 1 .407.39 1.032.39.61 0 1-.375.39-.39.39-.953 0-.578-.406-.968-.406-.407-1-.407-.61 0-1.016.391-.39.39-.39.922zm-.327 3.969q0 .453.203.875.219.421.64.656.422.234.907.234.75 0 1.234-.484.5-.485.5-1.235 0-.765-.5-1.265-.5-.5-1.266-.5-.75 0-1.234.5-.484.484-.484 1.219zm28.312-6.11h1.14v4.969q0 1.297-.297 2.063-.297.75-1.063 1.234-.765.469-2 .469-1.203 0-1.984-.407-.766-.422-1.094-1.203-.328-.797-.328-2.156v-4.969h1.14v4.953q0 1.125.204 1.657.219.53.719.828.515.281 1.25.281 1.25 0 1.781-.563.531-.578.531-2.203v-4.953zm3.234 8.594v-6.219h.937v.875q.688-1.015 1.984-1.015.563 0 1.032.203.484.203.718.531.235.328.329.766.046.296.046 1.03v3.829h-1.046v-3.781q0-.657-.125-.969-.125-.313-.438-.5-.312-.203-.734-.203-.672 0-1.172.437-.485.422-.485 1.61v3.406h-1.046zm7 0v-8.594h1.062v4.906l2.484-2.53h1.375l-2.39 2.296 2.625 3.922h-1.297l-2.063-3.188-.734.72v2.468h-1.062zm6 0v-6.219h.937v.875q.688-1.015 1.984-1.015.563 0 1.032.203.484.203.718.531.235.328.329.766.046.296.046 1.03v3.829h-1.046v-3.781q0-.657-.125-.969-.125-.313-.438-.5-.312-.203-.734-.203-.672 0-1.172.437-.485.422-.485 1.61v3.406h-1.046zm6.609-3.11q0-1.734.953-2.562.797-.687 1.953-.687 1.281 0 2.094.843.828.828.828 2.313 0 1.203-.36 1.89-.359.688-1.062 1.079-.687.375-1.5.375-1.297 0-2.11-.829-.796-.843-.796-2.421zm1.078 0q0 1.188.516 1.782.531.594 1.312.594.797 0 1.313-.594.515-.594.515-1.813 0-1.156-.53-1.75-.517-.593-1.298-.593t-1.312.593q-.516.578-.516 1.782zm7.453 3.11l-1.906-6.219h1.094l.984 3.594.375 1.328q.031-.094.328-1.281l.985-3.64h1.078l.937 3.609.313 1.187.36-1.203 1.062-3.594h1.03l-1.952 6.219h-1.094l-.984-3.734-.25-1.047-1.25 4.781h-1.11zm7.86 0v-6.219h.937v.875q.688-1.015 1.984-1.015.563 0 1.032.203.484.203.718.531.235.328.329.766.046.296.046 1.03v3.829h-1.046v-3.781q0-.657-.125-.969-.125-.313-.438-.5-.312-.203-.734-.203-.672 0-1.172.437-.485.422-.485 1.61v3.406h-1.046z"/><path fill="#34a853" d="M529.5 92.833a1 1 0 011-1h10a1 1 0 011 1v10a1 1 0 01-1 1h-10a1 1 0 01-1-1z"/><path fill="#1a1a1a" d="M552.61 101.833v-7.578h-2.829V93.24h6.813v1.015h-2.844v7.578h-1.14zm4.296-3.109q0-1.734.953-2.563.797-.687 1.953-.687 1.282 0 2.094.844.828.828.828 2.312 0 1.203-.359 1.89-.36.688-1.063 1.079-.687.375-1.5.375-1.296 0-2.109-.828-.797-.844-.797-2.422zm1.078 0q0 1.187.516 1.781.531.594 1.313.594.796 0 1.312-.594t.516-1.812q0-1.157-.532-1.75-.515-.594-1.297-.594-.78 0-1.312.594-.516.578-.516 1.781zm8.61 2.172l.156.922q-.453.093-.797.093-.578 0-.89-.171-.313-.188-.454-.485-.125-.297-.125-1.25v-3.578h-.765v-.812h.765v-1.547l1.047-.625v2.172h1.063v.812h-1.063v3.64q0 .454.047.579.063.125.188.203.125.078.359.078.188 0 .469-.031zm4.765.172q-.593.5-1.14.703-.532.203-1.157.203-1.03 0-1.578-.5-.547-.5-.547-1.281 0-.453.204-.828.203-.391.547-.61.343-.234.765-.344.297-.093.938-.171 1.265-.141 1.875-.36v-.265q0-.657-.297-.922-.407-.344-1.203-.344-.735 0-1.094.266-.36.25-.531.906l-1.032-.14q.141-.657.47-1.063.327-.407.937-.625.609-.219 1.406-.219.797 0 1.297.187.5.188.734.47.235.28.328.718.047.266.047.969v1.406q0 1.469.063 1.86.078.39.28.75h-1.109q-.156-.329-.203-.766zm-.093-2.36q-.578.235-1.72.407-.655.093-.921.218-.266.11-.422.328-.14.22-.14.5 0 .422.312.704.328.28.938.28.609 0 1.078-.265.484-.265.703-.734.172-.36.172-1.047v-.39zm3 3.125V93.24h1.062v8.593h-1.062z"/><path fill="#fbbc04" d="M592.5 92.833a1 1 0 011-1h10a1 1 0 011 1v10a1 1 0 01-1 1h-10a1 1 0 01-1-1z"/><path fill="#1a1a1a" d="M618.547 100.818v1.015h-5.688q0-.375.125-.734.22-.578.688-1.14.484-.563 1.39-1.298 1.407-1.156 1.891-1.828.5-.672.5-1.265 0-.625-.453-1.047-.453-.438-1.172-.438-.765 0-1.219.453-.453.454-.468 1.266l-1.078-.11q.109-1.218.828-1.843.734-.64 1.968-.64 1.235 0 1.953.687.72.687.72 1.703 0 .516-.22 1.016-.203.484-.703 1.046-.484.547-1.609 1.5-.953.797-1.234 1.094-.266.281-.438.563h4.219zM620 97.599q0-1.531.313-2.453.312-.938.921-1.438.625-.5 1.563-.5.687 0 1.203.282.531.28.875.812.344.516.531 1.266.188.75.188 2.031 0 1.516-.313 2.437-.297.922-.922 1.438-.609.5-1.562.5-1.235 0-1.953-.89-.844-1.063-.844-3.485zm1.078 0q0 2.11.5 2.812.5.704 1.219.704.734 0 1.219-.704.5-.703.5-2.812 0-2.125-.5-2.813-.485-.703-1.235-.703-.718 0-1.156.61-.547.781-.547 2.906zm9.89 4.234h-1.046v-6.718q-.39.359-1.016.734-.61.36-1.093.531v-1.015q.875-.422 1.53-1 .673-.594.954-1.157h.672v8.625zm4.657-4.656q-.656-.25-.984-.687-.313-.454-.313-1.063 0-.937.672-1.578.688-.64 1.797-.64 1.125 0 1.812.656.688.656.688 1.593 0 .594-.313 1.032-.312.437-.953.687.797.25 1.203.828.407.578.407 1.375 0 1.094-.782 1.844-.765.75-2.047.75-1.265 0-2.046-.75-.782-.75-.782-1.875 0-.844.422-1.406.438-.563 1.219-.766zm-.219-1.797q0 .61.39 1 .407.39 1.032.39.61 0 1-.374.39-.39.39-.953 0-.578-.405-.969-.407-.406-1-.406-.61 0-1.016.39-.39.391-.39.922zm-.328 3.969q0 .453.203.875.219.422.64.656.423.235.907.235.75 0 1.235-.485.5-.484.5-1.234 0-.766-.5-1.266t-1.266-.5q-.75 0-1.235.5-.484.485-.484 1.219z"/><path fill="#ea4335" d="M656.5 92.833a1 1 0 011-1h10a1 1 0 011 1v10a1 1 0 01-1 1h-10a1 1 0 01-1-1z"/><path fill="#1a1a1a" d="M682.547 100.818v1.015h-5.688q0-.375.125-.734.22-.578.688-1.14.484-.563 1.39-1.298 1.407-1.156 1.891-1.828.5-.672.5-1.265 0-.625-.453-1.047-.453-.438-1.172-.438-.765 0-1.219.453-.453.454-.468 1.266l-1.078-.11q.109-1.218.828-1.843.734-.64 1.968-.64 1.235 0 1.953.687.72.687.72 1.703 0 .516-.22 1.016-.203.484-.703 1.046-.484.547-1.609 1.5-.953.797-1.234 1.094-.266.281-.438.563h4.219zM684 97.599q0-1.531.313-2.453.312-.938.921-1.438.625-.5 1.563-.5.687 0 1.203.282.531.28.875.812.344.516.531 1.266.188.75.188 2.031 0 1.516-.313 2.437-.297.922-.922 1.438-.609.5-1.562.5-1.235 0-1.953-.89-.844-1.063-.844-3.485zm1.078 0q0 2.11.5 2.812.5.704 1.219.704.734 0 1.219-.704.5-.703.5-2.812 0-2.125-.5-2.813-.485-.703-1.235-.703-.718 0-1.156.61-.547.781-.547 2.906zm9.89 4.234h-1.046v-6.718q-.39.359-1.016.734-.61.36-1.093.531v-1.015q.875-.422 1.53-1 .673-.594.954-1.157h.672v8.625zm3.095-7.468v-1.016h5.562v.828q-.813.875-1.625 2.328-.797 1.438-1.234 2.969-.328 1.078-.407 2.36h-1.093q.015-1.016.39-2.454.39-1.437 1.094-2.765.719-1.329 1.531-2.25h-4.218z"/><path fill="#4285f4" d="M720.5 92.833a1 1 0 011-1h10a1 1 0 011 1v10a1 1 0 01-1 1h-10a1 1 0 01-1-1z"/><path fill="#1a1a1a" d="M746.547 100.818v1.015h-5.688q0-.375.125-.734.22-.578.688-1.14.484-.563 1.39-1.298 1.407-1.156 1.891-1.828.5-.672.5-1.265 0-.625-.453-1.047-.453-.438-1.172-.438-.765 0-1.219.453-.453.454-.468 1.266l-1.078-.11q.109-1.218.828-1.843.734-.64 1.968-.64 1.235 0 1.953.687.72.687.72 1.703 0 .516-.22 1.016-.203.484-.703 1.046-.484.547-1.609 1.5-.953.797-1.234 1.094-.266.281-.438.563h4.219zM748 97.599q0-1.531.313-2.453.312-.938.921-1.438.625-.5 1.563-.5.687 0 1.203.282.531.28.875.812.344.516.531 1.266.188.75.188 2.031 0 1.516-.313 2.437-.297.922-.922 1.438-.609.5-1.562.5-1.235 0-1.953-.89-.844-1.063-.844-3.485zm1.078 0q0 2.11.5 2.812.5.704 1.219.704.734 0 1.219-.704.5-.703.5-2.812 0-2.125-.5-2.813-.485-.703-1.235-.703-.718 0-1.156.61-.547.781-.547 2.906zm9.89 4.234h-1.046v-6.718q-.39.359-1.016.734-.61.36-1.093.531v-1.015q.875-.422 1.53-1 .673-.594.954-1.157h.672v8.625zm8.5-6.484l-1.046.078q-.14-.625-.39-.906-.438-.453-1.063-.453-.5 0-.89.281-.485.375-.782 1.078-.281.688-.297 1.969.375-.578.922-.86.562-.28 1.172-.28 1.047 0 1.781.78.75.782.75 2 0 .813-.36 1.516-.343.688-.952 1.063-.61.359-1.375.359-1.329 0-2.157-.969-.828-.969-.828-3.187 0-2.5.922-3.625.797-.985 2.156-.985 1.016 0 1.657.578.656.563.78 1.563zm-4.296 3.703q0 .547.219 1.047.234.484.64.75.422.266.89.266.657 0 1.141-.532.485-.547.485-1.468 0-.891-.485-1.407-.468-.515-1.187-.515-.719 0-1.219.515-.484.516-.484 1.344z"/><path fill="#757575" d="M392.969 59.1V44.787h1.89v12.626h7.047V59.1h-8.937zm10.86-12.297v-2.015h1.765v2.015h-1.766zm0 12.297V48.725h1.765V59.1h-1.766zm6.874 0l-3.953-10.375h1.86l2.234 6.219q.36 1 .656 2.078.234-.813.656-1.969l2.297-6.328h1.813L412.344 59.1h-1.64zm14.219-3.344l1.812.235q-.421 1.578-1.593 2.468-1.157.875-2.97.875-2.265 0-3.608-1.39-1.329-1.407-1.329-3.938 0-2.625 1.344-4.062 1.344-1.453 3.5-1.453 2.078 0 3.39 1.422 1.329 1.406 1.329 3.984 0 .156-.016.469h-7.734q.094 1.703.969 2.609.875.906 2.171.906.97 0 1.641-.5.688-.515 1.094-1.625zm-5.781-2.843h5.796q-.109-1.297-.656-1.954-.844-1.015-2.187-1.015-1.203 0-2.031.812-.829.797-.922 2.157zm15.828 6.187V44.787h5.375q1.64 0 2.625.438.984.422 1.547 1.328.562.906.562 1.89 0 .923-.5 1.735-.484.813-1.5 1.297 1.297.39 2 1.313.703.906.703 2.156 0 1.015-.437 1.875-.422.86-1.047 1.328-.625.469-1.563.719-.937.234-2.312.234h-5.453zm1.89-8.297h3.094q1.266 0 1.813-.172.718-.218 1.078-.703.375-.5.375-1.265 0-.704-.344-1.25-.344-.547-.984-.735-.625-.203-2.172-.203h-2.86v4.328zm0 6.61h3.563q.922 0 1.297-.079.656-.109 1.094-.375.437-.28.718-.797.281-.53.281-1.218 0-.797-.406-1.39-.406-.595-1.14-.829-.735-.234-2.094-.234h-3.313v4.922zm10.97-10.61v-2.015h1.765v2.015h-1.766zm0 12.297V48.725h1.765V59.1h-1.766zm3.968 0V48.725h1.578v1.578q.61-1.11 1.125-1.453.516-.36 1.125-.36.89 0 1.813.563l-.61 1.64q-.64-.39-1.281-.39-.578 0-1.047.36-.453.343-.656.953-.281.937-.281 2.047V59.1h-1.766zm10.86-1.578l.25 1.562q-.735.157-1.329.157-.953 0-1.484-.297-.516-.313-.735-.797-.218-.5-.218-2.078V50.1h-1.282v-1.375h1.282v-2.563l1.75-1.062v3.625h1.765V50.1h-1.765v6.063q0 .75.093.968.094.203.297.344.219.125.61.125.28 0 .765-.078zm2.156 1.578V44.787h1.765v5.126q1.235-1.422 3.11-1.422 1.14 0 1.984.453.86.453 1.219 1.265.375.797.375 2.313V59.1h-1.75v-6.578q0-1.313-.579-1.906-.578-.61-1.609-.61-.781 0-1.484.407-.688.406-.985 1.109-.28.687-.28 1.906V59.1h-1.767zm10.296-3.094l1.75-.281q.141 1.047.813 1.61.672.546 1.875.546 1.203 0 1.781-.484.594-.5.594-1.156 0-.594-.516-.938-.36-.234-1.797-.594-1.937-.5-2.687-.843-.735-.36-1.125-.985-.39-.64-.39-1.406 0-.688.312-1.281.328-.594.875-.985.406-.297 1.11-.5.718-.218 1.53-.218 1.22 0 2.141.359.922.344 1.36.953.437.594.609 1.594l-1.719.234q-.125-.797-.688-1.234-.562-.453-1.578-.453-1.218 0-1.734.406-.516.39-.516.922 0 .344.22.625.202.281.671.469.266.093 1.547.437 1.875.5 2.61.828.734.313 1.156.922.421.594.421 1.5 0 .875-.515 1.656-.516.782-1.485 1.203-.968.422-2.187.422-2.016 0-3.078-.843-1.063-.844-1.36-2.485zm18.329 3.094h-1.625V44.787h1.75v5.11q1.125-1.406 2.843-1.406.953 0 1.813.39t1.406 1.094q.547.688.86 1.672.312.984.312 2.11 0 2.671-1.313 4.124-1.312 1.453-3.156 1.453t-2.89-1.53V59.1zm-.016-5.266q0 1.86.5 2.703.844 1.344 2.25 1.344 1.156 0 1.984-1 .844-1 .844-2.984 0-2.031-.813-2.984-.796-.97-1.937-.97-1.156 0-2 1-.828 1-.828 2.891zm9.312 9.266l-.187-1.656q.578.156 1 .156.594 0 .937-.203.36-.188.579-.531.171-.266.546-1.313.047-.156.157-.437l-3.938-10.391h1.89l2.157 6.016q.422 1.14.75 2.39.313-1.203.719-2.36l2.219-6.046h1.765l-3.953 10.547q-.625 1.719-.984 2.36-.47.874-1.079 1.265-.593.406-1.437.406-.516 0-1.14-.203zm16.313-4V44.787h5.39q1.438 0 2.188.126 1.047.187 1.766.687.718.484 1.14 1.375.438.89.438 1.953 0 1.828-1.172 3.094-1.156 1.25-4.188 1.25h-3.672V59.1h-1.89zm1.89-7.516h3.704q1.828 0 2.593-.672.782-.687.782-1.937 0-.89-.453-1.531-.454-.64-1.188-.844-.484-.125-1.781-.125h-3.657v5.11zm17.985 4.172l1.812.235q-.422 1.578-1.593 2.468-1.157.875-2.97.875-2.265 0-3.609-1.39-1.328-1.407-1.328-3.938 0-2.625 1.344-4.062 1.344-1.453 3.5-1.453 2.078 0 3.39 1.422 1.329 1.406 1.329 3.984 0 .156-.016.469h-7.734q.094 1.703.969 2.609.875.906 2.172.906.968 0 1.64-.5.688-.515 1.094-1.625zm-5.781-2.843h5.797q-.11-1.297-.657-1.954-.843-1.015-2.187-1.015-1.203 0-2.032.812-.828.797-.921 2.157zm9.656 6.187V48.725h1.578v1.578q.61-1.11 1.125-1.453.516-.36 1.125-.36.89 0 1.813.563l-.61 1.64q-.64-.39-1.281-.39-.578 0-1.047.36-.453.343-.656.953-.282.937-.282 2.047V59.1h-1.765zm7.031-12.297v-2.015h1.766v2.015h-1.766zm0 12.297V48.725h1.766V59.1h-1.766zm3.344-5.188q0-2.874 1.594-4.265 1.343-1.156 3.265-1.156 2.14 0 3.485 1.406 1.359 1.406 1.359 3.875 0 2-.594 3.156-.593 1.14-1.75 1.781-1.14.625-2.5.625-2.187 0-3.531-1.39-1.328-1.407-1.328-4.032zm1.797 0q0 2 .86 2.985.874.984 2.202.984 1.313 0 2.172-.984.875-1 .875-3.047 0-1.922-.875-2.906-.875-1-2.172-1-1.328 0-2.203 1-.86.984-.86 2.968zm16.578 5.188v-1.313q-.985 1.547-2.906 1.547-1.235 0-2.282-.687-1.03-.688-1.609-1.906-.563-1.22-.563-2.813 0-1.562.516-2.828.516-1.266 1.547-1.938 1.047-.671 2.313-.671.937 0 1.671.406.735.39 1.203 1.016v-5.125h1.735V59.1h-1.625zm-5.563-5.172q0 1.985.844 2.969.844.984 1.985.984 1.156 0 1.953-.937.812-.938.812-2.875 0-2.125-.828-3.125-.813-1-2.016-1-1.172 0-1.968.968-.782.954-.782 3.016zm15.188-.015q0-2.875 1.594-4.266 1.343-1.156 3.265-1.156 2.14 0 3.485 1.406 1.359 1.406 1.359 3.875 0 2-.594 3.156-.593 1.14-1.75 1.781-1.14.625-2.5.625-2.187 0-3.531-1.39-1.328-1.407-1.328-4.032zm1.797 0q0 2 .86 2.984.874.984 2.202.984 1.313 0 2.172-.984.875-1 .875-3.047 0-1.922-.875-2.906-.875-1-2.172-1-1.328 0-2.203 1-.86.984-.86 2.968zm10.265 5.187v-9h-1.547v-1.375h1.547v-1.094q0-1.047.188-1.562.25-.688.89-1.11.641-.422 1.797-.422.75 0 1.641.172l-.266 1.532q-.547-.094-1.03-.094-.798 0-1.141.344-.329.343-.329 1.28v.954h2.032V50.1h-2.032v9h-1.75zm18.516-5.61v-1.687l6.063-.015V57.1q-1.407 1.125-2.891 1.688-1.485.562-3.047.562-2.11 0-3.828-.906-1.719-.907-2.61-2.61-.875-1.718-.875-3.828 0-2.093.875-3.89.875-1.813 2.516-2.688 1.64-.89 3.781-.89 1.547 0 2.797.5 1.266.5 1.969 1.406.719.89 1.094 2.343l-1.703.47q-.328-1.094-.813-1.72-.469-.624-1.36-1-.89-.374-1.968-.374-1.313 0-2.266.39-.937.39-1.515 1.047-.578.64-.907 1.406-.546 1.328-.546 2.89 0 1.907.656 3.204.672 1.281 1.922 1.906 1.265.625 2.672.625 1.234 0 2.406-.468 1.172-.47 1.781-1.016V53.49h-4.203zm16.172 2.266l1.812.235q-.422 1.578-1.593 2.468-1.157.875-2.97.875-2.265 0-3.609-1.39-1.328-1.407-1.328-3.938 0-2.625 1.344-4.062 1.344-1.453 3.5-1.453 2.078 0 3.39 1.422 1.329 1.406 1.329 3.984 0 .156-.016.469h-7.734q.094 1.703.969 2.609.875.906 2.172.906.968 0 1.64-.5.688-.515 1.094-1.625zm-5.781-2.843h5.797q-.11-1.297-.657-1.954-.843-1.015-2.187-1.015-1.203 0-2.032.812-.828.797-.921 2.157zm8.968 3.093l1.75-.281q.141 1.047.813 1.61.672.546 1.875.546 1.203 0 1.781-.484.594-.5.594-1.156 0-.594-.516-.938-.36-.234-1.797-.594-1.937-.5-2.687-.843-.735-.36-1.125-.985-.39-.64-.39-1.406 0-.688.312-1.281.328-.594.875-.985.406-.297 1.11-.5.718-.218 1.53-.218 1.22 0 2.141.359.922.344 1.36.953.437.594.609 1.594l-1.719.234q-.125-.797-.688-1.234-.562-.453-1.578-.453-1.218 0-1.734.406-.516.39-.516.922 0 .344.22.625.202.281.671.469.266.093 1.547.437 1.875.5 2.61.828.734.313 1.155.922.422.594.422 1.5 0 .875-.515 1.656-.516.782-1.485 1.203-.968.422-2.187.422-2.016 0-3.078-.843-1.063-.844-1.36-2.485zm14.547 1.516l.25 1.562q-.734.157-1.328.157-.953 0-1.484-.297-.516-.313-.735-.797-.218-.5-.218-2.078V50.1h-1.282v-1.375h1.282v-2.563l1.75-1.062v3.625h1.765V50.1h-1.765v6.063q0 .75.093.968.094.203.297.344.219.125.61.125.28 0 .765-.078zm8.938.297q-.985.828-1.89 1.172-.907.343-1.938.343-1.703 0-2.625-.828-.922-.843-.922-2.14 0-.766.343-1.391.36-.625.922-1 .563-.39 1.266-.594.516-.125 1.563-.265 2.125-.25 3.125-.594.015-.36.015-.469 0-1.062-.5-1.515-.672-.594-2-.594-1.25 0-1.844.437-.578.438-.859 1.547l-1.719-.234q.235-1.11.766-1.782.531-.687 1.547-1.046 1.015-.375 2.36-.375 1.327 0 2.155.312.828.313 1.22.797.39.469.546 1.188.094.453.094 1.625v2.343q0 2.453.11 3.11.109.64.452 1.234h-1.843q-.266-.547-.344-1.281zm-.157-3.922q-.953.39-2.875.656-1.078.156-1.53.36-.438.187-.688.562-.25.375-.25.844 0 .703.531 1.172.531.468 1.563.468 1.015 0 1.796-.437.797-.453 1.172-1.219.282-.61.282-1.765v-.641zm8.22 3.625l.25 1.562q-.735.157-1.329.157-.953 0-1.484-.297-.516-.313-.735-.797-.218-.5-.218-2.078V50.1h-1.282v-1.375h1.282v-2.563l1.75-1.062v3.625h1.765V50.1h-1.765v6.063q0 .75.093.968.094.203.297.344.219.125.61.125.28 0 .765-.078zm2.171-10.719v-2.015h1.766v2.015h-1.766zm0 12.297V48.725h1.766V59.1h-1.766zm3.344-5.188q0-2.874 1.594-4.265 1.343-1.156 3.265-1.156 2.14 0 3.485 1.406 1.359 1.406 1.359 3.875 0 2-.594 3.156-.593 1.14-1.75 1.781-1.14.625-2.5.625-2.187 0-3.531-1.39-1.328-1.407-1.328-4.032zm1.797 0q0 2 .86 2.985.874.984 2.202.984 1.313 0 2.172-.984.875-1 .875-3.047 0-1.922-.875-2.906-.875-1-2.172-1-1.328 0-2.203 1-.86.984-.86 2.968zm9.843 5.188V48.725h1.594v1.484q1.14-1.718 3.297-1.718.938 0 1.719.343.797.328 1.187.875.391.547.547 1.297.094.5.094 1.719V59.1h-1.766v-6.313q0-1.078-.203-1.609-.203-.531-.734-.844-.516-.312-1.219-.312-1.125 0-1.937.719-.813.703-.813 2.687V59.1h-1.765zm20.36 4.203q-1.453-1.828-2.453-4.281-1-2.469-1-5.11 0-2.328.75-4.453.875-2.468 2.703-4.922h1.265q-1.187 2.032-1.562 2.907-.594 1.343-.938 2.812-.421 1.828-.421 3.672 0 4.688 2.922 9.375h-1.266zm12.39-5.89V59.1h-9.453q-.015-.64.203-1.219.36-.968 1.157-1.906t2.297-2.172q2.343-1.906 3.156-3.015.828-1.125.828-2.125 0-1.047-.75-1.766-.75-.719-1.953-.719-1.266 0-2.031.766-.766.765-.766 2.11l-1.813-.188q.188-2.016 1.391-3.078 1.219-1.063 3.266-1.063 2.047 0 3.25 1.14 1.203 1.141 1.203 2.829 0 .86-.36 1.703-.343.828-1.156 1.75-.812.906-2.703 2.516-1.594 1.328-2.047 1.796-.437.47-.734.953h7.015zm1.766-5.375q0-2.532.516-4.079.531-1.562 1.562-2.39 1.032-.844 2.594-.844 1.156 0 2.016.469.875.453 1.437 1.328.563.875.89 2.14.329 1.25.329 3.376 0 2.515-.531 4.062-.516 1.547-1.547 2.406-1.016.844-2.594.844-2.078 0-3.25-1.484-1.422-1.797-1.422-5.828zm1.813 0q0 3.53.812 4.703.828 1.156 2.047 1.156 1.203 0 2.031-1.172.828-1.172.828-4.688 0-3.53-.828-4.687-.828-1.172-2.047-1.172-1.218 0-1.937 1.031-.906 1.297-.906 4.828zm15.812 7.062h-1.765V47.897q-.625.61-1.657 1.219-1.031.593-1.86.906v-1.703q1.485-.688 2.579-1.672 1.11-1 1.563-1.922h1.14V59.1zm13.5-10.813l-1.75.141q-.234-1.031-.656-1.5-.719-.765-1.766-.765-.843 0-1.468.468-.829.61-1.313 1.782-.484 1.156-.5 3.296.64-.953 1.547-1.422.922-.468 1.937-.468 1.75 0 2.985 1.297 1.234 1.28 1.234 3.328 0 1.36-.578 2.515-.578 1.157-1.594 1.782-1.015.609-2.312.609-2.188 0-3.578-1.61-1.391-1.624-1.391-5.343 0-4.14 1.531-6.031 1.344-1.641 3.61-1.641 1.687 0 2.765.953 1.078.938 1.297 2.61zm-7.172 6.172q0 .907.375 1.735.39.828 1.078 1.265.703.438 1.453.438 1.125 0 1.922-.89.797-.907.797-2.454 0-1.484-.797-2.328-.78-.86-1.984-.86-1.188 0-2.016.86-.828.844-.828 2.234zm8.86.344v-1.765h5.39v1.765h-5.39zm16.422 2.61V59.1h-9.454q-.015-.64.203-1.219.36-.968 1.157-1.906t2.297-2.172q2.343-1.906 3.156-3.015.828-1.125.828-2.125 0-1.047-.75-1.766-.75-.719-1.953-.719-1.266 0-2.031.766-.766.765-.766 2.11l-1.813-.188q.188-2.016 1.391-3.078 1.219-1.063 3.266-1.063 2.047 0 3.25 1.14 1.203 1.141 1.203 2.829 0 .86-.36 1.703-.343.828-1.156 1.75-.812.906-2.703 2.516-1.594 1.328-2.047 1.796-.437.47-.734.953h7.015zm1.765-5.375q0-2.532.516-4.079.531-1.562 1.562-2.39 1.032-.844 2.594-.844 1.156 0 2.016.469.875.453 1.437 1.328.563.875.89 2.14.329 1.25.329 3.376 0 2.515-.531 4.062-.516 1.547-1.547 2.406-1.016.844-2.594.844-2.078 0-3.25-1.484-1.422-1.797-1.422-5.828zm1.813 0q0 3.53.812 4.703.828 1.156 2.047 1.156 1.203 0 2.031-1.172.828-1.172.828-4.688 0-3.53-.828-4.687-.828-1.172-2.047-1.172-1.218 0-1.937 1.031-.906 1.297-.906 4.828zm15.812 7.062h-1.765V47.897q-.625.61-1.657 1.219-1.031.593-1.86.906v-1.703q1.485-.688 2.579-1.672 1.11-1 1.563-1.922h1.14V59.1zm7.078-7.766q-1.093-.406-1.625-1.14-.515-.75-.515-1.782 0-1.562 1.125-2.624 1.125-1.063 2.984-1.063 1.875 0 3.016 1.094 1.14 1.078 1.14 2.64 0 1-.531 1.735-.516.734-1.578 1.14 1.328.438 2.015 1.391.688.953.688 2.281 0 1.844-1.313 3.094-1.296 1.25-3.406 1.25-2.125 0-3.422-1.25-1.297-1.266-1.297-3.14 0-1.391.704-2.329.718-.953 2.015-1.297zm-.343-2.984q0 1.016.656 1.672.656.64 1.687.64 1.016 0 1.672-.64.656-.64.656-1.563 0-.968-.672-1.625-.671-.672-1.671-.672t-1.672.657q-.657.64-.657 1.531zm-.563 6.625q0 .75.344 1.453.36.703 1.062 1.094.703.375 1.516.375 1.265 0 2.078-.813.828-.812.828-2.062 0-1.266-.844-2.094-.843-.828-2.125-.828-1.234 0-2.047.828-.812.813-.812 2.047zm10.156 4.125v-2h2v2q0 1.11-.39 1.781-.391.688-1.235 1.047l-.5-.75q.563-.234.828-.719.266-.468.297-1.359h-1zm11.125-4.594l1.782-.156q.125 1.063.578 1.75.468.688 1.437 1.125.985.422 2.219.422 1.078 0 1.906-.313.828-.328 1.235-.89.406-.563.406-1.235 0-.672-.39-1.172-.391-.5-1.282-.843-.578-.235-2.563-.703-1.968-.47-2.75-.891-1.03-.531-1.53-1.328t-.5-1.781q0-1.094.609-2.032.609-.937 1.796-1.422 1.188-.5 2.625-.5 1.594 0 2.813.516t1.86 1.516q.655.984.702 2.25l-1.812.14q-.14-1.359-.985-2.047-.843-.703-2.5-.703-1.718 0-2.515.641-.781.625-.781 1.5 0 .781.562 1.281.547.5 2.86 1.016 2.312.516 3.171.906 1.25.578 1.844 1.469.594.875.594 2.031 0 1.14-.656 2.156-.657 1.016-1.891 1.578-1.219.563-2.75.563-1.938 0-3.25-.563-1.313-.578-2.063-1.718-.75-1.14-.78-2.563zm13.422-7.703v-2.015h1.766v2.015h-1.766zm0 12.297V48.725h1.766V59.1h-1.766zm3.985 0V48.725h1.593v1.484q1.14-1.718 3.297-1.718.938 0 1.719.343.797.328 1.187.875.391.547.547 1.297.094.5.094 1.719V59.1h-1.766v-6.313q0-1.078-.203-1.609-.203-.531-.734-.844-.516-.312-1.219-.312-1.125 0-1.937.719-.813.703-.813 2.687V59.1h-1.765zm10.687.86l1.703.25q.11.796.594 1.156.656.484 1.797.484 1.218 0 1.875-.484.672-.485.906-1.36.14-.547.125-2.265-1.156 1.359-2.875 1.359-2.14 0-3.313-1.547-1.171-1.547-1.171-3.703 0-1.484.53-2.734.548-1.25 1.563-1.938 1.032-.687 2.407-.687 1.828 0 3.03 1.484v-1.25h1.61v8.969q0 2.422-.5 3.422-.484 1.015-1.562 1.593-1.063.594-2.625.594-1.844 0-3-.828-1.14-.828-1.094-2.516zm1.453-6.235q0 2.047.813 2.984.812.938 2.03.938 1.204 0 2.016-.938.829-.937.829-2.922 0-1.906-.844-2.874-.844-.97-2.031-.97-1.172 0-2 .954-.813.953-.813 2.828zm16.64 4.094q-.984.828-1.89 1.172-.906.343-1.937.343-1.703 0-2.625-.828-.922-.843-.922-2.14 0-.766.343-1.391.36-.625.922-1 .563-.39 1.266-.594.516-.125 1.563-.265 2.125-.25 3.125-.594.015-.36.015-.469 0-1.062-.5-1.515-.672-.594-2-.594-1.25 0-1.844.437-.578.438-.859 1.547l-1.719-.234q.235-1.11.766-1.782.531-.687 1.547-1.046 1.015-.375 2.36-.375 1.327 0 2.155.312.828.313 1.22.797.39.469.546 1.188.094.453.094 1.625v2.343q0 2.453.11 3.11.109.64.452 1.234h-1.843q-.266-.547-.344-1.281zm-.155-3.922q-.954.39-2.875.656-1.079.156-1.532.36-.437.187-.687.562-.25.375-.25.844 0 .703.531 1.172.531.468 1.563.468 1.015 0 1.796-.437.797-.453 1.172-1.219.282-.61.282-1.765v-.641zm4.375 9.172V48.725h1.609v1.344q.562-.782 1.265-1.172.72-.406 1.735-.406 1.328 0 2.344.687 1.015.688 1.53 1.938.532 1.234.532 2.718 0 1.594-.578 2.875-.563 1.266-1.656 1.953-1.094.672-2.297.672-.875 0-1.578-.375-.688-.375-1.14-.937v5.047h-1.766zm1.593-9.094q0 2 .813 2.953.812.953 1.968.953 1.172 0 2-.984.844-.984.844-3.078 0-1.969-.828-2.953-.812-1-1.937-1t-2 1.062q-.86 1.047-.86 3.047zm8.766-.063q0-2.874 1.594-4.265 1.343-1.156 3.265-1.156 2.14 0 3.485 1.406 1.359 1.406 1.359 3.875 0 2-.594 3.156-.593 1.14-1.75 1.781-1.14.625-2.5.625-2.187 0-3.531-1.39-1.328-1.407-1.328-4.032zm1.797 0q0 2 .86 2.985.874.984 2.202.984 1.313 0 2.172-.984.875-1 .875-3.047 0-1.922-.875-2.906-.875-1-2.172-1-1.328 0-2.203 1-.86.984-.86 2.968zm9.828 5.188V48.725h1.578v1.578q.61-1.11 1.125-1.453.516-.36 1.125-.36.89 0 1.813.563l-.61 1.64q-.64-.39-1.281-.39-.578 0-1.047.36-.453.343-.656.953-.282.937-.282 2.047V59.1h-1.765zm14.125-3.344l1.812.235q-.422 1.578-1.593 2.468-1.157.875-2.97.875-2.265 0-3.609-1.39-1.328-1.407-1.328-3.938 0-2.625 1.344-4.062 1.344-1.453 3.5-1.453 2.078 0 3.39 1.422 1.329 1.406 1.329 3.984 0 .156-.016.469h-7.734q.094 1.703.969 2.609.875.906 2.172.906.968 0 1.64-.5.688-.515 1.094-1.625zm-5.781-2.843h5.797q-.11-1.297-.657-1.954-.843-1.015-2.187-1.015-1.203 0-2.032.812-.828.797-.921 2.157zm10.828 10.39h-1.25q2.906-4.687 2.906-9.375 0-1.844-.406-3.64-.344-1.47-.938-2.813-.375-.89-1.562-2.938h1.25q1.843 2.454 2.718 4.922.75 2.125.75 4.453 0 2.641-1.015 5.11-1 2.453-2.453 4.281z"/></svg>